<svg width="52" height="52" viewBox="0 0 52 52" fill="none" xmlns="http://www.w3.org/2000/svg">
<rect width="52" height="52" rx="26" fill="#145EEE"/>
<path d="M33.7652 33.5101C33.5581 31.8587 29.9906 32.6386 26.5627 32.682C29.4562 28.9267 31.8634 25.6961 31.3675 20.0391C30.9776 15.5183 27.1645 12.7499 22.6148 15.3931C13.2746 20.819 14.3916 35.7632 22.7496 30.6647C22.9518 31.5554 23.1444 32.4653 23.1829 33.1779C23.0096 33.2982 22.61 33.5197 22.4029 33.64C21.2475 34.3478 21.907 35.9029 22.9518 35.5899C23.4044 35.4503 23.5199 35.3925 23.7414 35.3155C24.2228 37.0391 24.7669 39.9278 26.2545 40C26.7793 39.9711 27.256 39.6148 27.1597 38.9456C26.7601 37.7901 25.956 36.2928 25.7586 34.8437C27.3715 34.6318 30.5394 34.4681 32.2053 34.5259C33.1585 34.6655 33.9385 34.2707 33.7748 33.5197L33.7652 33.5101ZM25.4457 28.296C26.1149 27.3764 28.137 24.9017 27.1597 24.0351C25.7827 22.9856 25.1424 25.8165 24.3239 26.5964C24.2373 25.9657 24.0399 23.4381 23.958 21.6616C23.9436 21.0646 23.3514 20.5831 22.7688 20.6939C21.3293 21.0549 21.9504 22.6485 22.0756 23.9244C22.2007 25.2002 22.2729 26.4568 22.3307 27.2464C22.4126 28.3489 21.7193 28.9267 20.4001 29.3022C19.0809 29.6777 18.3491 28.58 18.1903 27.3282C17.964 25.9417 18.1421 24.5599 18.5754 23.2504C18.9269 22.1912 19.4661 21.2042 20.1161 20.3039C26.6397 11.2815 34.6269 19.9669 24.9546 31.4109C24.8535 31.0258 24.6706 29.9184 24.5887 29.4225L25.4505 28.3008L25.4457 28.296Z" fill="white"/>
<path d="M31.2857 29.7884C31.8923 31.0787 33.7507 30.3566 33.5004 28.9844C33.2019 26.9527 30.4335 28.0697 31.2857 29.7884Z" fill="white"/>
</svg>
